<svg width="41" height="28" viewBox="0 0 41 28" fill="none" xmlns="http://www.w3.org/2000/svg">
<path d="M19.6466 12.5779C20.1931 11.1179 21.3774 8.92776 24.0799 7.37642C26.3877 6.03802 29.0599 5.70342 30.9426 5.73384C28.4526 2.5095 24.5962 0.441063 20.2235 0.410645C19.3733 1.71863 17.855 4.60836 17.855 7.31559C17.8246 9.8403 18.8571 11.6046 19.6466 12.5779Z" fill="#489E35"/>
<path d="M21.2559 13.0342C22.7742 12.7605 25.2946 12.73 27.9971 14.2814C30.1227 15.4981 31.7017 17.3232 32.7341 19.6654C33.4629 17.9924 33.8577 16.1369 33.8577 14.1901C33.8577 11.7566 33.22 9.47528 32.1268 7.46768C30.8818 7.28517 27.6327 7.25475 24.9605 8.80608C22.7135 10.0836 21.7114 11.8479 21.2559 13.0342Z" fill="#E52528"/>
<path d="M12.9965 12.6996C15.1828 13.9772 17.2173 13.9772 18.4623 13.7643C17.4602 12.578 16.1849 10.4183 16.1849 7.3156C16.1849 4.85172 17.2477 2.29658 18.2194 0.562744C14.12 1.11027 10.5976 3.4829 8.47201 6.8289C8.89713 8.10647 10.3547 11.1787 12.9965 12.6996Z" fill="#E52528"/>
<path d="M20.4968 15.8023C19.9502 17.2624 18.766 19.4525 16.0634 21.0038C13.7556 22.3422 11.0835 22.6768 9.23115 22.6768C11.7211 25.8707 15.6079 27.9392 19.9502 27.9696C20.7701 26.692 22.2884 23.8327 22.2884 21.0646C22.2884 18.5703 21.2863 16.8061 20.4968 15.8023Z" fill="#E52528"/>
<path d="M27.1469 15.711C24.9605 14.4335 22.9261 14.4335 21.6811 14.6464C22.6831 15.8327 23.9585 17.9924 23.9585 21.0951C23.9585 23.5894 22.9261 26.1445 21.9847 27.8479C26.0537 27.27 29.5761 24.9278 31.6714 21.6122C30.8211 18.9658 29.3028 16.9582 27.1469 15.711Z" fill="#489E35"/>
<path d="M18.8874 15.3764C17.3691 15.6502 14.8488 15.6806 12.1463 14.1293C11.3871 13.673 10.6887 13.1255 10.1118 12.5475C8.89713 11.3308 8.01653 9.87071 7.43958 8.71481C6.7108 10.3878 6.28569 12.2737 6.28569 14.2205C6.28569 16.6844 6.92336 18.9962 8.07726 21.0038C9.38298 21.1255 12.6017 21.095 15.2132 19.6045C17.4299 18.327 18.4319 16.5627 18.8874 15.3764Z" fill="#489E35"/>
<path d="M40.113 17.3536V11.057L36.955 10.2662L40.113 7.10266V3.14828L32.886 5.73384C34.465 8.1673 35.4063 11.057 35.4063 14.1597C35.4063 17.2624 34.465 20.1825 32.886 22.5855L40.113 25.1711V21.2167L36.955 18.0532L40.113 17.3536Z" fill="#489E35"/>
<path d="M4.70667 14.1901C4.70667 11.0875 5.64801 8.1673 7.22702 5.76426L0 3.17871V7.13308L3.15802 10.2966L0 11.057V17.3536L3.15802 18.1445L0 21.308V25.2624L7.22702 22.6768C5.64801 20.2129 4.70667 17.3232 4.70667 14.1901Z" fill="#E52528"/>
</svg>
