<svg width="294" height="64" viewBox="0 0 147 32" fill="none" xmlns="http://www.w3.org/2000/svg">
<g clip-path="url(#clip0_174_411)">
<path d="M99.0223 8.51712C103.881 8.51712 106.644 11.346 108.284 14.6312C108.466 15.0266 108.922 15.4829 108.922 15.9392L95.5303 22.692C96.5323 23.5437 97.6558 24 98.9919 24C100.935 24 102.423 22.9658 103.304 21.7491L107.191 24.4867C105.551 26.7681 102.697 28.7148 98.9919 28.7148C93.4654 28.7148 88.8802 24.1217 88.8802 18.5856C88.9106 13.0799 93.4958 8.51712 99.0223 8.51712ZM93.678 18.3118L101.968 14.2358C101.057 13.6274 100.085 13.3232 99.0223 13.3232C96.1679 13.2928 93.7994 15.5437 93.678 18.3118Z" fill="#1D3948"/>
<path d="M119.975 8.51712C124.833 8.51712 127.596 11.346 129.236 14.6312C129.418 15.0266 129.874 15.4829 129.874 15.9392L116.483 22.692C117.485 23.5437 118.608 24 119.944 24C121.888 24 123.376 22.9658 124.256 21.7491L128.143 24.4867C126.503 26.7681 123.649 28.7148 119.944 28.7148C114.418 28.7148 109.832 24.1217 109.832 18.5856C109.863 13.0799 114.448 8.51712 119.975 8.51712ZM114.63 18.3118L122.92 14.2358C122.009 13.6274 121.037 13.3232 119.975 13.3232C117.09 13.2928 114.752 15.5437 114.63 18.3118Z" fill="#1D3948"/>
<path d="M143.386 22.5399L147 25.673C145.634 27.2548 143.235 28.6844 140.562 28.6844C139.652 28.6844 138.741 28.5019 137.769 28.1065C134.672 26.7985 131.908 23.8175 131.908 19.711V7.14829C131.908 5.8403 130.815 4.74525 129.509 4.74525V0H132.789C134.975 0 136.645 1.673 136.645 3.86312V8.60836H143.052V13.3536H136.645V19.7414C136.645 22.0228 138.467 24.0304 140.775 24.0304C141.899 24 142.84 23.1787 143.386 22.5399Z" fill="#1D3948"/>
<path d="M84.7808 8.4867L79.8616 22.3574C79.4365 21.3232 78.9202 20.2586 78.1915 17.9772C76.5214 12.7757 74.5172 8.39545 68.9299 8.39545V13.019C70.1446 13.019 71.177 13.597 71.9361 14.7833L69.2032 22.5095L69.021 22.0837C68.6263 21.384 68.1404 20.0456 67.5028 18.0076C65.8327 12.8365 63.8285 8.4867 58.2412 8.4867L53.3524 8.66921C51.0142 8.8213 48.8886 9.94678 47.9169 12.1977C47.5222 13.1103 47.34 13.9316 47.34 14.7224C47.34 17.3993 49.3745 19.3764 51.7126 20.5019C53.3827 21.2928 54.3848 21.8099 54.8099 22.0837C55.0832 22.3574 55.235 22.6616 55.235 22.9354C55.235 23.5742 54.4455 24.0304 53.4738 24.0304C52.3807 24.0304 51.3482 23.27 50.3765 21.6882L46.3076 24.1217C48.1902 27.1635 50.5891 28.7148 53.4738 28.7148H53.5953C57.1177 28.7148 60.2757 26.4639 60.2757 23.2396C60.2757 22.6008 60.1239 21.9012 59.8506 21.2015C58.97 18.8289 56.7533 17.673 54.4455 16.4563C53.4435 15.9088 52.2289 15.6046 52.2289 14.5095V14.3574C52.2896 13.597 52.7451 13.2624 53.2917 13.2015L58.1805 13.1103H58.2716C59.6077 13.1103 60.6705 13.8403 61.4904 15.3308C64.284 20.289 64.2233 28.7453 71.511 28.7453H71.8147V28.7148H71.8451L74.4869 21.4145C75.8837 25.1559 77.5234 28.7148 82.0783 28.7148H82.5034L89.7608 8.51712H84.7808V8.4867Z" fill="#1D3948"/>
<path d="M19.6466 16.5779C20.1932 15.1179 21.3774 12.9278 24.08 11.3764C26.3878 10.038 29.0599 9.70342 30.9426 9.73384C28.4526 6.5095 24.5962 4.44106 20.2235 4.41064C19.3733 5.71863 17.855 8.60836 17.855 11.3156C17.8247 13.8403 18.8571 15.6046 19.6466 16.5779Z" fill="#489E35"/>
<path d="M21.256 17.0342C22.7743 16.7605 25.2946 16.73 27.9971 18.2814C30.1227 19.4981 31.7018 21.3232 32.7342 23.6654C33.463 21.9924 33.8577 20.1369 33.8577 18.1901C33.8577 15.7566 33.22 13.4753 32.1269 11.4677C30.8819 11.2852 27.6328 11.2547 24.9606 12.8061C22.7135 14.0836 21.7115 15.8479 21.256 17.0342Z" fill="#E52528"/>
<path d="M12.9965 16.6996C15.1828 17.9772 17.2173 17.9772 18.4623 17.7643C17.4603 16.578 16.1849 14.4183 16.1849 11.3156C16.1849 8.85172 17.2477 6.29658 18.2194 4.56274C14.1201 5.11027 10.5976 7.4829 8.47205 10.8289C8.89716 12.1065 10.3547 15.1787 12.9965 16.6996Z" fill="#E52528"/>
<path d="M20.4968 19.8023C19.9503 21.2624 18.766 23.4525 16.0635 25.0038C13.7557 26.3422 11.0835 26.6768 9.2312 26.6768C11.7212 29.8707 15.608 31.9392 19.9503 31.9696C20.7701 30.692 22.2884 27.8327 22.2884 25.0646C22.2884 22.5703 21.2864 20.8061 20.4968 19.8023Z" fill="#E52528"/>
<path d="M27.1469 19.711C24.9606 18.4335 22.9261 18.4335 21.6811 18.6464C22.6832 19.8327 23.9585 21.9924 23.9585 25.0951C23.9585 27.5894 22.9261 30.1445 21.9847 31.8479C26.0537 31.27 29.5762 28.9278 31.6714 25.6122C30.8211 22.9658 29.3029 20.9582 27.1469 19.711Z" fill="#489E35"/>
<path d="M18.8874 19.3764C17.3692 19.6502 14.8488 19.6806 12.1463 18.1293C11.3871 17.673 10.6887 17.1255 10.1118 16.5475C8.89715 15.3308 8.01655 13.8707 7.4396 12.7148C6.71082 14.3878 6.28571 16.2737 6.28571 18.2205C6.28571 20.6844 6.92338 22.9962 8.07728 25.0038C9.383 25.1255 12.6018 25.095 15.2132 23.6045C17.4299 22.327 18.432 20.5627 18.8874 19.3764Z" fill="#489E35"/>
<path d="M40.113 21.3536V15.057L36.955 14.2662L40.113 11.1027V7.14828L32.886 9.73384C34.465 12.1673 35.4063 15.057 35.4063 18.1597C35.4063 21.2624 34.465 24.1825 32.886 26.5855L40.113 29.1711V25.2167L36.955 22.0532L40.113 21.3536Z" fill="#489E35"/>
<path d="M4.70667 18.1901C4.70667 15.0875 5.64801 12.1673 7.22702 9.76426L0 7.17871V11.1331L3.15802 14.2966L0 15.057V21.3536L3.15802 22.1445L0 25.308V29.2624L7.22702 26.6768C5.64801 24.2129 4.70667 21.3232 4.70667 18.1901Z" fill="#E52528"/>
</g>
<defs>
<clipPath id="clip0_174_411">
<rect width="147" height="32" fill="white"/>
</clipPath>
</defs>
</svg>
